<svg id="Capa_1" data-name="Capa 1" xmlns="http://www.w3.org/2000/svg" xmlns:xlink="http://www.w3.org/1999/xlink" viewBox="0 0 2560 1261.54"><defs><style>.cls-1,.cls-5{fill:none;}.cls-2{clip-path:url(#clip-path);}.cls-3{opacity:0.53;}.cls-4{opacity:0.23;}.cls-5{stroke:#3c3c3b;stroke-miterlimit:10;stroke-width:0.71px;}.cls-6{fill:#a5a4a4;}.cls-7{fill:#ffdc0a;}.cls-8{fill:#048cb5;}.cls-9{fill:#a2d1d9;}.cls-10{fill:#f7b136;}</style><clipPath id="clip-path"><rect class="cls-1" width="2560" height="1261.54"/></clipPath></defs><g class="cls-2"><g class="cls-3"><g class="cls-4"><polyline class="cls-5" points="2503.37 639.09 2654.34 730.18 2720.19 223.26 2532.48 147.44"/><polyline class="cls-5" points="1964.1 1804.86 2524.38 1194.55 2644.41 1797.99 1964.1 1804.86"/><line class="cls-5" x1="2524.38" y1="1194.55" x2="2292.32" y2="1801.54"/><polyline class="cls-5" points="2208.85 1194.55 1959.54 1126.81 1966.41 1807.12"/><polyline class="cls-5" points="1966.41 1807.12 1784.71 1629.06 1591.45 1077.48 1959.54 1126.81 1784.71 1629.06"/><polyline class="cls-5" points="2644.41 1797.99 2584.51 987.06 2321.62 1064.07 1963.1 1478.9"/><polyline class="cls-5" points="2321.62 1064.07 2503.37 639.09 2524.38 1194.55"/><polyline class="cls-5" points="1959.54 1126.81 2163.68 1024.85 2423.58 812.63"/><polyline class="cls-5" points="1959.54 1126.81 1840.46 774.14 1591.45 1077.48 1076.1 1520.17 1345.46 1572.05 1591.45 1077.48 1665.17 1832.49"/><line class="cls-5" x1="2026.12" y1="743.17" x2="1959.54" y2="1126.81"/><polyline class="cls-5" points="2165.83 1026.96 2026.13 743.17 1840.46 774.14 1479.89 945.93"/><polygon class="cls-5" points="558.26 1551.64 -122.06 1558.5 214.67 1214.91 558.26 1551.64"/><line class="cls-5" x1="216.98" y1="1217.18" x2="-126.61" y2="880.45"/><polyline class="cls-5" points="-123.06 1232.55 216.98 1217.18 567.17 1362.18 558.26 1551.64 1177.31 1274.95"/><polyline class="cls-5" points="216.98 1217.18 362.96 1105.5 567.17 1362.18 721.51 1131.49"/><polyline class="cls-5" points="-126.61 880.46 77.53 778.5 362.96 1105.5"/><line class="cls-5" x1="79.68" y1="780.61" x2="-60.03" y2="496.82"/><polyline class="cls-5" points="1243.7 907.28 1479.89 945.93 1750.42 652.5 1243.7 907.28"/><polygon class="cls-5" points="1177.31 1274.95 828.69 743.17 718.42 1130.52 1177.31 1274.95"/><polyline class="cls-5" points="1479.89 945.93 1177.31 1274.95 1243.7 907.28"/><line class="cls-5" x1="939.41" y1="920.7" x2="1243.7" y2="905.98"/><line class="cls-5" x1="718.42" y1="1130.52" x2="939.41" y2="920.7"/><circle class="cls-6" cx="939.41" cy="920.7" r="13.41"/><polyline class="cls-5" points="721.51 1131.49 262.63 987.06 828.69 743.17"/><polyline class="cls-5" points="828.69 743.17 538.72 671.63 198.25 588.94 262.63 987.06 538.72 671.63"/><circle class="cls-7" cx="262.63" cy="987.06" r="13.41"/><polyline class="cls-5" points="538.72 671.63 79.68 266.49 197.87 590.16 -60.03 496.82 79.68 266.49"/><line class="cls-5" x1="1177.31" y1="1274.95" x2="1591.45" y2="1077.48"/><circle class="cls-8" cx="198.16" cy="591.21" r="13.41"/><circle class="cls-8" cx="1959.54" cy="1126.81" r="13.41"/><circle class="cls-6" cx="2165.83" cy="1026.96" r="13.41"/><circle class="cls-6" cx="1480.79" cy="945.02" r="13.41"/><circle class="cls-6" cx="362.96" cy="1105.5" r="13.41"/><circle class="cls-9" cx="214.67" cy="1214.91" r="13.41"/><circle class="cls-10" cx="718.42" cy="1130.52" r="13.41"/><circle class="cls-9" cx="1591.45" cy="1077.48" r="13.41"/><line class="cls-5" x1="1750.42" y1="652.5" x2="1840.46" y2="774.14"/><circle class="cls-6" cx="1840.46" cy="774.14" r="13.41"/><line class="cls-5" x1="1750.42" y1="652.5" x2="2026.12" y2="743.17"/><line class="cls-5" x1="1243.7" y1="907.28" x2="828.69" y2="743.17"/><circle class="cls-6" cx="828.69" cy="743.17" r="13.41"/><circle class="cls-6" cx="1243.7" cy="907.28" r="13.41"/><circle class="cls-6" cx="2208.85" cy="1194.55" r="13.41"/><circle class="cls-6" cx="2519.06" cy="1009.06" r="13.41"/><polygon class="cls-5" points="2503.37 639.09 2532.48 152.43 2321.62 323.02 2503.37 639.09"/><polyline class="cls-5" points="2423.58 812.63 2329.12 826.04 2026.13 743.17 2080.71 520.55 2321.62 323.02 2350.07 -18.17 2540.61 -34.13 2321.62 323.02"/><line class="cls-5" x1="1750.42" y1="652.5" x2="2080.71" y2="520.55"/><circle class="cls-6" cx="1750.42" cy="652.5" r="13.41"/><circle class="cls-8" cx="2026.12" cy="743.17" r="13.41"/><circle class="cls-6" cx="2532.48" cy="147.44" r="13.41"/><polyline class="cls-5" points="2328.62 825.23 2080.71 520.55 2503.37 639.09"/><circle class="cls-6" cx="2328.62" cy="825.23" r="13.41"/><circle class="cls-10" cx="2321.62" cy="323.02" r="13.41"/><circle class="cls-6" cx="2503.37" cy="639.09" r="13.41"/><line class="cls-5" x1="2423.58" y1="812.63" x2="2080.71" y2="520.55"/><circle class="cls-9" cx="2423.58" cy="812.63" r="13.41"/><circle class="cls-6" cx="2080.71" cy="520.55" r="13.41"/><line class="cls-5" x1="2524.38" y1="1194.55" x2="2321.62" y2="1064.07"/><circle class="cls-6" cx="2524.38" cy="1194.55" r="13.41"/><circle class="cls-10" cx="2321.62" cy="1064.07" r="13.41"/><line class="cls-5" x1="73.3" y1="780.61" x2="66.26" y2="1069.47"/><circle class="cls-10" cx="66.26" cy="1064.07" r="13.41" transform="translate(-998.57 1116.69) rotate(-89.27)"/><circle class="cls-6" cx="79.68" cy="780.61" r="13.41"/><polyline class="cls-5" points="79.68 266.49 38.58 -45.1 538.72 671.63"/><circle class="cls-8" cx="79.68" cy="266.49" r="13.41"/><circle class="cls-6" cx="538.72" cy="671.63" r="13.41"/></g></g></g></svg>